<?xml version="1.0" encoding="UTF-8" standalone="no"?>
<svg
   xmlns:dc="http://purl.org/dc/elements/1.1/"
   xmlns:cc="http://creativecommons.org/ns#"
   xmlns:rdf="http://www.w3.org/1999/02/22-rdf-syntax-ns#"
   xmlns:svg="http://www.w3.org/2000/svg"
   xmlns="http://www.w3.org/2000/svg"
   xmlns:sodipodi="http://sodipodi.sourceforge.net/DTD/sodipodi-0.dtd"
   xmlns:inkscape="http://www.inkscape.org/namespaces/inkscape"
   width="11"
   height="15"
   id="svg3297"
   sodipodi:version="0.32"
   inkscape:version="0.48.1 "
   inkscape:output_extension="org.inkscape.output.svg.inkscape"
   sodipodi:docname="header-icon"
   version="1.1"
   inkscape:export-filename="S:\Webseite\php\other\openmpt.org\redesign\header-icon.png"
   inkscape:export-xdpi="147.27272"
   inkscape:export-ydpi="147.27272">
  <metadata
     id="metadata3346">
    <rdf:RDF>
      <cc:Work
         rdf:about="">
        <dc:format>image/svg+xml</dc:format>
        <dc:type
           rdf:resource="http://purl.org/dc/dcmitype/StillImage" />
        <dc:title></dc:title>
      </cc:Work>
    </rdf:RDF>
  </metadata>
  <defs
     id="defs3344">
    <inkscape:perspective
       sodipodi:type="inkscape:persp3d"
       inkscape:vp_x="0 : 181.87796 : 1"
       inkscape:vp_y="0 : 1000 : 0"
       inkscape:vp_z="389.26773 : 181.87796 : 1"
       inkscape:persp3d-origin="194.63387 : 121.25197 : 1"
       id="perspective3348" />
  </defs>
  <sodipodi:namedview
     inkscape:window-height="1129"
     inkscape:window-width="1920"
     inkscape:pageshadow="2"
     inkscape:pageopacity="0.0"
     guidetolerance="10.0"
     gridtolerance="10.0"
     objecttolerance="10.0"
     borderopacity="1.0"
     bordercolor="#666666"
     pagecolor="#ffffff"
     id="base"
     showgrid="true"
     inkscape:zoom="22.627417"
     inkscape:cx="7.5055911"
     inkscape:cy="10.373964"
     inkscape:window-x="-4"
     inkscape:window-y="-4"
     inkscape:current-layer="svg3297"
     inkscape:window-maximized="1">
    <inkscape:grid
       type="xygrid"
       id="grid3801" />
  </sodipodi:namedview>
  <!-- EMR_SETMAPMODE -->
  <!-- EMR_SETWINDOWEXTEX -->
  <!-- EMR_SETVIEWPORTEXTEX -->
  <!-- EMR_SETBKMODE -->
  <!-- EMR_SETBKCOLOR -->
  <path
     style="fill:#000000;fill-opacity:1;fill-rule:nonzero;stroke:none"
     d=""
     id="path3301"
     inkscape:connector-curvature="0" />
  <!-- EMR_SETBKCOLOR -->
  <path
     style="fill:#000000;fill-opacity:1;fill-rule:nonzero;stroke:none"
     d=""
     id="path3305"
     inkscape:connector-curvature="0" />
  <!-- EMR_SETBKCOLOR -->
  <path
     style="fill:#ff0000;fill-opacity:1;fill-rule:nonzero;stroke:#000000;stroke-width:0.07086615px;stroke-linejoin:round;stroke-opacity:1;stroke-dasharray:none"
     d=""
     id="path3309"
     inkscape:connector-curvature="0" />
  <!-- EMR_SETBKCOLOR -->
  <path
     style="fill:#ff0000;fill-opacity:1;fill-rule:nonzero;stroke:#000000;stroke-width:0.07086615px;stroke-linejoin:round;stroke-opacity:1;stroke-dasharray:none"
     d=""
     id="path3313"
     inkscape:connector-curvature="0" />
  <!-- EMR_SETBKCOLOR -->
  <path
     style="fill:#ff0000;fill-opacity:1;fill-rule:nonzero;stroke:#000000;stroke-width:0.07086615px;stroke-linejoin:round;stroke-opacity:1;stroke-dasharray:none"
     d=""
     id="path3317"
     inkscape:connector-curvature="0" />
  <!-- EMR_SETBKCOLOR -->
  <path
     style="fill:#ff0000;fill-opacity:1;fill-rule:nonzero;stroke:#000000;stroke-width:0.07086615px;stroke-linejoin:round;stroke-opacity:1;stroke-dasharray:none"
     d=""
     id="path3321"
     inkscape:connector-curvature="0" />
  <!-- EMR_SETBKCOLOR -->
  <path
     style="fill:#ff0000;fill-opacity:1;fill-rule:nonzero;stroke:#ffffff;stroke-width:0.03543307px;stroke-linejoin:round;stroke-opacity:1;stroke-dasharray:none"
     d=""
     id="path3325"
     inkscape:connector-curvature="0" />
  <!-- EMR_SETBKCOLOR -->
  <path
     style="fill:#ffffff;fill-opacity:1;fill-rule:nonzero;stroke:none"
     d=""
     id="path3329"
     inkscape:connector-curvature="0" />
  <!-- EMR_SETBKCOLOR -->
  <path
     style="fill:#ffffff;fill-opacity:1;fill-rule:nonzero;stroke:none"
     d=""
     id="path3333"
     inkscape:connector-curvature="0" />
  <!-- EMR_SETBKCOLOR -->
  <path
     style="fill:#ffffff;fill-opacity:1;fill-rule:nonzero;stroke:none"
     d=""
     id="path3337"
     inkscape:connector-curvature="0" />
  <!-- EMR_SETBKCOLOR -->
  <path
     inkscape:connector-curvature="0"
     style="fill:#fffff5;fill-opacity:1;stroke:none"
     d="m 158.86578,221.74326 c 0,0 0,-2.05587 0,-2.05587 0,0 1.8437,0 1.8437,0 0,0 0,2.05587 0,2.05587 0,0 -1.8437,0 -1.8437,0"
     id="path3331" />
  <path
     inkscape:connector-curvature="0"
     style="fill:#ffffff;fill-opacity:1;stroke:none"
     d="m 160.70948,223.79912 c 0,0 0,-1.02793 0,-1.02793 0,0 -1.8437,0 -1.8437,0 0,0 0,1.02793 0,1.02793 0,0 0.92185,1.02793 0.92185,1.02793 0,0 0.92185,-1.02793 0.92185,-1.02793"
     id="path3335" />
  <path
     inkscape:connector-curvature="0"
     style="fill:#b0b0b0;fill-opacity:1;stroke:none"
     d="m 1.3613358e-6,7.4427869 c 0,0 0,-5.5193141 0,-7.38738871 0,0 2.0624993386642,0 2.7499996386642,1.65e-6 0,0 0,0.50947445 0,0.67929762 C 3.6666725,-0.19933491 5.3472226,-0.45407627 6.4930554,1.2441736 7.0277777,-0.02951505 10.23611,-1.1333755 11,2.3480374 c 0,0 0,3.8210625 2e-6,5.0947495 0,0 -2.062503,0 -2.7500017,0 0,0 0,-4.3305387 0,-4.3305387 0,-0.8491257 -1.2222226,-0.9340356 -1.3750006,-0.084912 0,0 0,3.3115881 0,4.4154503 0,0 -2.0624994,0 -2.749998,0 0,0 0,-3.1417633 0,-4.2456254 0,-0.934039 -1.3750007,-1.1038638 -1.3750007,1.6e-6 0,0 0,3.1417633 0,4.2456238 0,0 -2.06250097,0 -2.7499996386642,0"
     id="path3323" />
  <path
     inkscape:connector-curvature="0"
     style="fill:#b0b0b0;fill-opacity:1;stroke:none"
     d="m 1.6041666,8.0371746 c 0,0 0.1527797,0 0.1527797,0 0,0 -1.7e-6,3.2266764 -1.7e-6,3.2266764 0,0 -0.2291662,-2e-6 -0.2291662,-2e-6 0,0 1.6e-6,1.188776 1.6e-6,1.188776 0,0 -0.3055577,0 -0.3055577,0 0,0 0,-1.188774 0,-1.188774 0,0 -0.1527764,0 -0.1527764,0 0,0 -1.6e-6,-3.2266764 -1.6e-6,-3.2266764 0,0 0.1527797,0 0.1527797,0 0,0 0,-0.5943877 0,-0.5943877 0,0 0.3819426,0 0.3819426,0 0,0 0,0.5943877 0,0.5943877"
     id="path3327" />
  <path
     inkscape:connector-curvature="0"
     style="fill:#b0b0b0;fill-opacity:1;stroke:none"
     d="m 4.1250017,15 c 0,0 0,-7.3024767 0,-7.3024767 0,0 2.749998,0 2.749998,0 0,0 0,1.1887754 0,1.1887754 0.2291662,0.7642141 1.0694445,0.7642158 1.3750006,0 0,0 0,-1.1887754 0,-1.1887754 0,0 2.7500017,0 2.7500017,0 0,0 0,1.4435134 0,1.4435134 C 11,11.94315 7.8680544,12.62245 6.8749997,11.094026 c 0,0 0,3.905974 0,3.905974 0,0 -2.749998,0 -2.749998,0"
     id="path3339" />
  <path
     style="fill:#ffffff;fill-opacity:1;fill-rule:nonzero;stroke:none"
     d=""
     id="path3341"
     inkscape:connector-curvature="0" />
</svg>
