<?xml version="1.0" encoding="UTF-8" standalone="no"?>
<svg
   xmlns:dc="http://purl.org/dc/elements/1.1/"
   xmlns:cc="http://creativecommons.org/ns#"
   xmlns:rdf="http://www.w3.org/1999/02/22-rdf-syntax-ns#"
   xmlns:svg="http://www.w3.org/2000/svg"
   xmlns="http://www.w3.org/2000/svg"
   xmlns:sodipodi="http://sodipodi.sourceforge.net/DTD/sodipodi-0.dtd"
   xmlns:inkscape="http://www.inkscape.org/namespaces/inkscape"
   width="92"
   height="97"
   id="svg3297"
   sodipodi:version="0.32"
   inkscape:version="0.48.1 "
   inkscape:output_extension="org.inkscape.output.svg.inkscape"
   sodipodi:docname="sticky-alpha.svg"
   version="1.1"
   inkscape:export-filename="S:\Webseite\php\other\openmpt.org\redesign\template\sticky.png"
   inkscape:export-xdpi="90"
   inkscape:export-ydpi="90">
  <metadata
     id="metadata3346">
    <rdf:RDF>
      <cc:Work
         rdf:about="">
        <dc:format>image/svg+xml</dc:format>
        <dc:type
           rdf:resource="http://purl.org/dc/dcmitype/StillImage" />
        <dc:title></dc:title>
      </cc:Work>
    </rdf:RDF>
  </metadata>
  <defs
     id="defs3344">
    <inkscape:perspective
       sodipodi:type="inkscape:persp3d"
       inkscape:vp_x="0 : 181.87796 : 1"
       inkscape:vp_y="0 : 1000 : 0"
       inkscape:vp_z="389.26773 : 181.87796 : 1"
       inkscape:persp3d-origin="194.63387 : 121.25197 : 1"
       id="perspective3348" />
  </defs>
  <sodipodi:namedview
     inkscape:window-height="1129"
     inkscape:window-width="1920"
     inkscape:pageshadow="2"
     inkscape:pageopacity="0"
     guidetolerance="10.0"
     gridtolerance="10.0"
     objecttolerance="10.0"
     borderopacity="1.0"
     bordercolor="#666666"
     pagecolor="#000000"
     id="base"
     showgrid="true"
     inkscape:zoom="8"
     inkscape:cx="30.254951"
     inkscape:cy="40.796475"
     inkscape:window-x="-4"
     inkscape:window-y="-4"
     inkscape:current-layer="svg3297"
     inkscape:window-maximized="1">
    <inkscape:grid
       type="xygrid"
       id="grid2999"
       empspacing="5"
       visible="true"
       enabled="true"
       snapvisiblegridlinesonly="true" />
  </sodipodi:namedview>
  <!-- EMR_SETMAPMODE -->
  <!-- EMR_SETWINDOWEXTEX -->
  <!-- EMR_SETVIEWPORTEXTEX -->
  <!-- EMR_SETBKMODE -->
  <!-- EMR_SETBKCOLOR -->
  <path
     style="fill:#000000;fill-opacity:1;fill-rule:nonzero;stroke:none"
     d=""
     id="path3301"
     inkscape:connector-curvature="0" />
  <!-- EMR_SETBKCOLOR -->
  <path
     style="fill:#000000;fill-opacity:1;fill-rule:nonzero;stroke:none"
     d=""
     id="path3305"
     inkscape:connector-curvature="0" />
  <!-- EMR_SETBKCOLOR -->
  <path
     style="fill:#ff0000;fill-opacity:1;fill-rule:nonzero;stroke:#000000;stroke-width:0.07086615px;stroke-linejoin:round;stroke-opacity:1;stroke-dasharray:none"
     d=""
     id="path3309"
     inkscape:connector-curvature="0" />
  <!-- EMR_SETBKCOLOR -->
  <path
     style="fill:#ff0000;fill-opacity:1;fill-rule:nonzero;stroke:#000000;stroke-width:0.07086615px;stroke-linejoin:round;stroke-opacity:1;stroke-dasharray:none"
     d=""
     id="path3313"
     inkscape:connector-curvature="0" />
  <!-- EMR_SETBKCOLOR -->
  <path
     style="fill:#ff0000;fill-opacity:1;fill-rule:nonzero;stroke:#000000;stroke-width:0.07086615px;stroke-linejoin:round;stroke-opacity:1;stroke-dasharray:none"
     d=""
     id="path3317"
     inkscape:connector-curvature="0" />
  <!-- EMR_SETBKCOLOR -->
  <path
     style="fill:#ff0000;fill-opacity:1;fill-rule:nonzero;stroke:#000000;stroke-width:0.07086615px;stroke-linejoin:round;stroke-opacity:1;stroke-dasharray:none"
     d=""
     id="path3321"
     inkscape:connector-curvature="0" />
  <!-- EMR_SETBKCOLOR -->
  <path
     style="fill:#ff0000;fill-opacity:1;fill-rule:nonzero;stroke:#ffffff;stroke-width:0.03543307px;stroke-linejoin:round;stroke-opacity:1;stroke-dasharray:none"
     d=""
     id="path3325"
     inkscape:connector-curvature="0" />
  <!-- EMR_SETBKCOLOR -->
  <path
     style="fill:#ffffff;fill-opacity:1;fill-rule:nonzero;stroke:none"
     d=""
     id="path3329"
     inkscape:connector-curvature="0" />
  <!-- EMR_SETBKCOLOR -->
  <path
     style="fill:#ffffff;fill-opacity:1;fill-rule:nonzero;stroke:none"
     d=""
     id="path3333"
     inkscape:connector-curvature="0" />
  <!-- EMR_SETBKCOLOR -->
  <path
     style="fill:#ffffff;fill-opacity:1;fill-rule:nonzero;stroke:none"
     d=""
     id="path3337"
     inkscape:connector-curvature="0" />
  <!-- EMR_SETBKCOLOR -->
  <path
     inkscape:connector-curvature="0"
     style="fill:#fffff5;fill-opacity:1;stroke:none"
     d="m 158.86578,221.74326 c 0,0 0,-2.05587 0,-2.05587 0,0 1.8437,0 1.8437,0 0,0 0,2.05587 0,2.05587 0,0 -1.8437,0 -1.8437,0"
     id="path3331" />
  <path
     inkscape:connector-curvature="0"
     style="fill:#ffffff;fill-opacity:1;stroke:none"
     d="m 160.70948,223.79912 c 0,0 0,-1.02793 0,-1.02793 0,0 -1.8437,0 -1.8437,0 0,0 0,1.02793 0,1.02793 0,0 0.92185,1.02793 0.92185,1.02793 0,0 0.92185,-1.02793 0.92185,-1.02793"
     id="path3335" />
  <g
     id="g3779"
     inkscape:export-xdpi="90"
     inkscape:export-ydpi="90">
    <path
       id="path3323"
       d="m 16.616911,32.274932 c 0,0 23.831357,-23.929546 31.897356,-32.02877743 0,0 8.877579,8.91415573 11.836768,11.88554743 0,0 -2.199816,2.208879 -2.933081,2.945166 7.978584,-0.08772 16.312073,6.071179 13.911339,18.386424 7.801141,-3.211124 26.376969,5.869434 14.632881,24.264995 0,0 -16.498634,16.566612 -21.998169,22.088815 0,0 -8.877589,-8.914165 -11.836779,-11.885547 0,0 18.698451,-18.775491 18.698451,-18.775491 3.666366,-3.681472 -1.227792,-9.332072 -5.551752,-6.310922 0,0 -14.298819,14.357732 -19.065088,19.143639 0,0 -8.877579,-8.914156 -11.836769,-11.885538 0,0 13.565544,-13.621435 18.331813,-18.407342 4.033005,-4.049621 -1.152109,-10.728681 -5.918389,-5.942764 0,0 -13.565543,13.621435 -18.331803,18.407332 0,0 -8.877589,-8.914155 -11.836778,-11.885537"
       style="fill:#000000;fill-opacity:0.10980392;stroke:#e6e6e6;stroke-width:0.49230935999999997;stroke-linejoin:round;stroke-miterlimit:4;stroke-opacity:0.25098039000000000;stroke-dasharray:none"
       inkscape:connector-curvature="0" />
    <path
       id="path3327"
       d="m 20.955236,41.785187 c 0,0 0.657603,0.660313 0.657603,0.660313 0,0 -13.9321807,13.989573 -13.9321807,13.989573 0,0 -0.9863898,-0.990464 -0.9863898,-0.990464 0,0 -5.1329072,5.154066 -5.1329072,5.154066 0,0 -1.31520662,-1.320625 -1.31520662,-1.320625 0,0 5.13290722,-5.154056 5.13290722,-5.154056 0,0 -0.6575932,-0.660302 -0.6575932,-0.660302 0,0 13.9321713,-13.989584 13.9321713,-13.989584 0,0 0.657603,0.660313 0.657603,0.660313 0,0 2.566454,-2.577028 2.566454,-2.577028 0,0 1.643993,1.650767 1.643993,1.650767 0,0 -2.566454,2.577027 -2.566454,2.577027"
       style="fill:#000000;fill-opacity:0.10980392;stroke:#e6e6e6;stroke-width:0.49230935999999997;stroke-linejoin:round;stroke-miterlimit:4;stroke-opacity:0.25098039000000000;stroke-dasharray:none"
       inkscape:connector-curvature="0" />
    <path
       id="path3339"
       d="m 1.7414469,82.868307 c 0,0 31.5307181,-31.660629 31.5307181,-31.660629 0,0 11.836769,11.885538 11.836769,11.885538 0,0 -5.132907,5.154055 -5.132907,5.154055 -2.313339,4.303788 1.303454,7.935493 5.918389,5.942774 0,0 5.132907,-5.154056 5.132907,-5.154056 0,0 11.836779,11.885548 11.836779,11.885548 0,0 -6.23282,6.2585 -6.23282,6.2585 -12.099003,12.148843 -28.512866,1.557694 -26.187804,-9.360941 0,0 -16.865263,16.934749 -16.865263,16.934749 0,0 -11.8367681,-11.885538 -11.8367681,-11.885538"
       style="fill:#000000;fill-opacity:0.10980392;stroke:#e6e6e6;stroke-width:0.49230935999999997;stroke-linejoin:round;stroke-miterlimit:4;stroke-opacity:0.25098039000000000;stroke-dasharray:none"
       inkscape:connector-curvature="0" />
  </g>
  <path
     style="fill:#ffffff;fill-opacity:1;fill-rule:nonzero;stroke:none"
     d=""
     id="path3341"
     inkscape:connector-curvature="0" />
</svg>
